<?xml version="1.0" encoding="UTF-8"?>
<svg xmlns="http://www.w3.org/2000/svg" xmlns:xlink="http://www.w3.org/1999/xlink" width="319pt" height="401pt" viewBox="0 0 319 401" version="1.1">
<defs>
<clipPath id="clip1">
  <path d="M 0 0.574219 L 318.851562 0.574219 L 318.851562 400.941406 L 0 400.941406 Z M 0 0.574219 "/>
</clipPath>
</defs>
<g id="surface1">
<g clip-path="url(#clip1)" clip-rule="nonzero">
<path style=" stroke:none;fill-rule:nonzero;fill:rgb(16.365051%,13.476562%,32.418823%);fill-opacity:1;" d="M 291.703125 351.925781 C 291.667969 351.878906 291.632812 351.835938 291.609375 351.789062 C 291.007812 350.847656 290.519531 349.855469 290.082031 348.847656 C 290 348.648438 289.914062 348.453125 289.832031 348.257812 C 289.429688 347.195312 289.085938 346.113281 288.863281 345.003906 L 288.863281 345 C 288.621094 343.808594 288.503906 342.59375 288.503906 341.378906 L 288.503906 60.203125 C 288.503906 58.988281 288.621094 57.773438 288.863281 56.578125 L 288.863281 56.574219 C 289.097656 55.386719 289.453125 54.210938 289.914062 53.074219 L 289.914062 53.0625 C 290.378906 51.925781 290.945312 50.820312 291.621094 49.773438 L 291.621094 49.761719 C 292.308594 48.707031 293.078125 47.707031 293.941406 46.769531 L 318.851562 20.199219 L 310.878906 0.574219 L 277.425781 4 L 219.886719 9.890625 L 189.183594 13.03125 L 97.234375 22.445312 L 68.261719 25.40625 L 24.433594 29.894531 L 0 32.394531 L 19.945312 53.558594 C 20.664062 54.328125 21.304688 55.171875 21.851562 56.082031 C 22.40625 56.996094 22.882812 57.972656 23.261719 59.003906 C 23.652344 60.035156 23.9375 61.109375 24.140625 62.230469 C 24.339844 63.34375 24.433594 64.492188 24.433594 65.660156 L 24.433594 335.914062 C 24.433594 337.085938 24.339844 338.238281 24.140625 339.355469 C 23.9375 340.472656 23.652344 341.550781 23.261719 342.582031 C 22.882812 343.613281 22.40625 344.589844 21.851562 345.503906 C 21.304688 346.414062 20.664062 347.257812 19.945312 348.015625 L 0 369.183594 L 24.433594 371.6875 L 97.234375 379.136719 L 124.65625 381.945312 L 148.605469 365.726562 L 127.808594 341.617188 C 127.109375 340.796875 126.480469 339.914062 125.933594 338.988281 C 125.914062 338.949219 125.878906 338.90625 125.855469 338.863281 C 125.355469 338.011719 124.941406 337.105469 124.585938 336.191406 C 124.515625 336.011719 124.441406 335.832031 124.371094 335.648438 C 124.027344 334.683594 123.746094 333.691406 123.566406 332.679688 L 123.566406 332.671875 C 123.367188 331.585938 123.257812 330.476562 123.257812 329.363281 L 123.257812 60.992188 L 189.183594 55.777344 L 189.183594 349.246094 C 189.183594 350.53125 189.066406 351.800781 188.828125 353.019531 C 188.59375 354.25 188.238281 355.433594 187.773438 356.558594 C 187.3125 357.691406 186.742188 358.757812 186.066406 359.753906 C 185.402344 360.746094 184.621094 361.671875 183.769531 362.5 L 159.734375 385.53125 L 189.183594 388.542969 L 277.425781 397.574219 L 310.878906 401 L 318.851562 381.378906 L 293.941406 354.8125 C 293.101562 353.910156 292.355469 352.9375 291.703125 351.925781 "/>
</g>
</g>
</svg>
